<svg xmlns="http://www.w3.org/2000/svg" version="1.1" xmlns:xlink="http://www.w3.org/1999/xlink" xmlns:svgjs="http://svgjs.com/svgjs" width="512" height="512" x="0" y="0" viewBox="0 0 48 48" style="enable-background:new 0 0 512 512" xml:space="preserve" class=""><defs><linearGradient xmlns="http://www.w3.org/2000/svg" id="a" gradientUnits="userSpaceOnUse" x1="8.609" x2="40.619" y1="8.609" y2="40.619"><stop offset="0" stop-color="#9b8dff"></stop><stop offset=".252" stop-color="#7d79fd"></stop><stop offset=".555" stop-color="#5f65fb"></stop><stop offset=".815" stop-color="#4d58f9"></stop><stop offset="1" stop-color="#4654f9"></stop></linearGradient></defs><g><linearGradient xmlns="http://www.w3.org/2000/svg" id="a" gradientUnits="userSpaceOnUse" x1="8.609" x2="40.619" y1="8.609" y2="40.619"><stop offset="0" stop-color="#9b8dff"></stop><stop offset=".252" stop-color="#7d79fd"></stop><stop offset=".555" stop-color="#5f65fb"></stop><stop offset=".815" stop-color="#4d58f9"></stop><stop offset="1" stop-color="#4654f9"></stop></linearGradient><rect xmlns="http://www.w3.org/2000/svg" fill="url(&quot;#a&quot;)" height="40" rx="10" width="40" x="4" y="4" data-original="url(#a)" class=""></rect><g xmlns="http://www.w3.org/2000/svg" opacity=".9"><path d="m18 29.5a1.5 1.5 0 0 1 -1.061-.439l-4-4a1.5 1.5 0 0 1 0-2.122l4-4a1.5 1.5 0 0 1 2.122 2.122l-2.94 2.939 2.94 2.939a1.5 1.5 0 0 1 -1.061 2.561z" fill="#FFFFFF" data-original="#ffffff"></path></g><g xmlns="http://www.w3.org/2000/svg" opacity=".9"><path d="m30 29.5a1.5 1.5 0 0 1 -1.061-2.561l2.94-2.939-2.94-2.939a1.5 1.5 0 0 1 2.122-2.122l4 4a1.5 1.5 0 0 1 0 2.122l-4 4a1.5 1.5 0 0 1 -1.061.439z" fill="#FFFFFF" data-original="#ffffff"></path></g><g xmlns="http://www.w3.org/2000/svg" opacity=".5"><path d="m22 32.5a1.514 1.514 0 0 1 -.413-.058 1.5 1.5 0 0 1 -1.03-1.854l4-14a1.5 1.5 0 1 1 2.884.824l-4 14a1.5 1.5 0 0 1 -1.441 1.088z" fill="#FFFFFF" data-original="#ffffff"></path></g></g></svg>