<?xml version="1.0" encoding="utf-8"?>
<!-- Generator: Adobe Illustrator 25.2.1, SVG Export Plug-In . SVG Version: 6.00 Build 0)  -->
<svg version="1.1" xmlns="http://www.w3.org/2000/svg" xmlns:xlink="http://www.w3.org/1999/xlink" x="0px" y="0px"
	 viewBox="0 0 750 500" style="enable-background:new 0 0 750 500;" xml:space="preserve">
<style type="text/css">
	.st0{fill:#FFFFFE;}
	.st1{fill:#DCF5F9;}
</style>
<g id="BACKGROUND">
</g>
<g id="OBJECTS">
	<g>
		<g>
			<path class="st0" d="M691,320.9c4.8-7.5,7.4-15.6,7.4-24.1c0-37-49.8-67.2-112.9-69.7c1.1-4.3,1.7-8.8,1.7-13.5
				c0-34.2-31.7-61.8-70.8-61.8c-16.6,0-31.9,5-44,13.4c-9.4-41.3-51-72.3-101-72.3c-56.9,0-103,40.3-103,90
				c0,10.8,2.2,21.1,6.1,30.6c-7-0.7-14.2-1.1-21.5-1.1c-67,0-121.4,31.3-121.4,69.9c0,3.5,0.5,6.8,1.3,10.2
				c-55.1,7.9-92.6,23.6-92.6,41.7c0,26,77.7,47.1,173.5,47.1c11.4,0,22.5-0.3,33.2-0.9c27.9,15.9,87.5,26.8,156.7,26.8
				c38.8,0,74.7-3.5,103.6-9.3c6.4,0.9,13.2,1.4,20.2,1.4c19.7,0,37.7-4,51.8-10.7c13.6,5.9,30.5,9.3,48.8,9.3
				c45.1,0,81.7-21.1,81.7-47.1C709.7,339.5,702.7,329,691,320.9z"/>
			<path class="st1" d="M527.4,399.3c19.7,0,37.7-4,51.8-10.7c13.6,5.9,30.5,9.3,48.8,9.3c36.5,0,67.4-13.8,77.9-32.8
				c0.1-1.3,0.1-2.5,0.2-3.8c3.6-31.7-64.5-43.1-125-26c23.6-52.5-46.9-111.2-91.4-75.1c-33.4-102.7-202.7-89.9-198.6,18.4
				c-103.6-11.8-154.5,14.5-154.5,53.1c-56.9-10.2-121.6,7.8-52.3,33.7c31.8,9.7,78,15.8,129.5,15.8c11.4,0,22.5-0.3,33.2-0.9
				c27.9,15.9,87.5,26.8,156.7,26.8c38.8,0,74.7-3.5,103.6-9.3C513.7,398.8,520.4,399.3,527.4,399.3z"/>
		</g>
		<path class="st0" d="M108.9,266.8c0,3.9-4.8,7.1-10.7,7.1c-5.9,0-10.7-3.2-10.7-7.1s4.8-7.1,10.7-7.1
			C104.1,259.7,108.9,262.9,108.9,266.8z"/>
		<ellipse class="st0" cx="641.6" cy="186.2" rx="30.7" ry="15.8"/>
		<ellipse class="st0" cx="227.2" cy="170.4" rx="17.4" ry="12.9"/>
	</g>
</g>
</svg>
